<?xml version="1.0" encoding="utf-8"?>
<svg width="30px" height="26.670044px" viewBox="0 0 30 26.670044" version="1.1" xmlns:xlink="http://www.w3.org/1999/xlink" xmlns="http://www.w3.org/2000/svg">
  <defs>
    <path d="M30 0L30 0L30 26.67L0 26.67L0 0L30 0Z" id="path_1" />
    <clipPath id="clip_1">
      <use xlink:href="#path_1" />
    </clipPath>
  </defs>
  <g id="cart-flatbed-suitcase" clip-path="url(#clip_1)">
    <path d="M30 0L30 0L30 26.67L0 26.67L0 0L30 0Z" id="cart-flatbed-suitcase" fill="none" stroke="none" />
    <path d="M25.3688 23.3363C25.4109 23.5967 25.5047 23.878 25.5047 24.1697C25.5047 25.5501 24.4969 26.67 23.25 26.67C22.0078 26.67 21.0047 25.5501 21.0047 24.1697C21.0047 23.878 21.0563 23.5967 21.0984 23.3363L11.8641 23.3363C11.9484 23.5967 12 23.878 12 24.1697C12 25.5501 10.9922 26.67 9.75 26.67C8.50781 26.67 7.5 25.5501 7.5 24.1697C7.5 23.878 7.55156 23.5967 7.63594 23.3363L4.5 23.3363C3.675 23.3363 3 22.5862 3 21.6694L3 4.16719C3 3.70671 2.66438 3.33375 2.25 3.33375L1.5 3.33375C0.675 3.33375 0 2.58366 0 1.66688C0 0.750094 0.675 0 1.5 0L3 0C4.65 0 6 1.50019 6 3.33375L6 20.0025L28.5 20.0025C29.325 20.0025 30 20.7526 30 21.6694C30 22.5862 29.325 23.3363 28.5 23.3363L25.3688 23.3363L25.3688 23.3363ZM20.25 0C21.4922 0 22.5 1.11993 22.5 2.50031L22.5 16.6688L13.5 16.6688L13.5 2.50031C13.5 1.11993 14.5078 0 15.75 0L20.25 0L20.25 0ZM15.75 5.00063L20.25 5.00063L20.25 2.50031L15.75 2.50031L15.75 5.00063L15.75 5.00063ZM12 16.6688L10.5 16.6688C9.675 16.6688 9 15.9187 9 15.0019L9 6.6675C9 5.75072 9.675 5.00063 10.5 5.00063L12 5.00063L12 16.6688L12 16.6688ZM27 6.6675L27 15.0019C27 15.9187 26.325 16.6688 25.5 16.6688L24 16.6688L24 5.00063L25.5 5.00063C26.325 5.00063 27 5.75072 27 6.6675L27 6.6675Z" id="Forma" fill="#47E18A" fill-rule="evenodd" stroke="none" />
  </g>
</svg>