<?xml version="1.0" encoding="utf-8"?>
<svg width="30px" height="26.670044px" viewBox="0 0 30 26.670044" version="1.1" xmlns:xlink="http://www.w3.org/1999/xlink" xmlns="http://www.w3.org/2000/svg">
  <defs>
    <path d="M30 0L30 0L30 26.67L0 26.67L0 0L30 0Z" id="path_1" />
    <clipPath id="clip_1">
      <use xlink:href="#path_1" />
    </clipPath>
  </defs>
  <g id="chart-line" clip-path="url(#clip_1)">
    <path d="M30 0L30 0L30 26.67L0 26.67L0 0L30 0Z" id="chart-line" fill="none" stroke="none" />
    <path d="M3.75 20.8359C3.75 21.2943 4.16953 21.6694 4.6875 21.6694L28.125 21.6694C29.1621 21.6694 30 22.4143 30 23.3363C30 24.2582 29.1621 25.0031 28.125 25.0031L4.6875 25.0031C2.09883 25.0031 0 23.1383 0 20.8359L0 3.33375C0 2.41332 0.839648 1.66688 1.875 1.66688C2.91035 1.66688 3.75 2.41332 3.75 3.33375L3.75 20.8359L3.75 20.8359ZM20.0742 14.5122C19.3418 15.1634 18.1582 15.1634 17.4258 14.5122L14.0625 11.5275L8.82422 16.1791C8.0918 16.8302 6.9082 16.8302 6.17578 16.1791C5.44219 15.528 5.44219 14.4758 6.17578 13.8246L12.7383 7.99058C13.4707 7.33946 14.6543 7.33946 15.3867 7.99058L18.75 10.9753L24.9258 5.49027C25.6582 4.8381 26.8418 4.8381 27.5742 5.49027C28.3066 6.14139 28.3066 7.19361 27.5742 7.84473L20.0742 14.5122L20.0742 14.5122Z" id="Forma" fill="#47E18A" fill-rule="evenodd" stroke="none" />
  </g>
</svg>