<?xml version="1.0" encoding="utf-8"?>
<svg width="30px" height="26.670044px" viewBox="0 0 30 26.670044" version="1.1" xmlns:xlink="http://www.w3.org/1999/xlink" xmlns="http://www.w3.org/2000/svg">
  <defs>
    <path d="M30 0L30 0L30 26.67L0 26.67L0 0L30 0Z" id="path_1" />
    <clipPath id="clip_1">
      <use xlink:href="#path_1" />
    </clipPath>
  </defs>
  <g id="gear" clip-path="url(#clip_1)">
    <path d="M30 0L30 0L30 26.67L0 26.67L0 0L30 0Z" id="gear" fill="none" stroke="none" />
    <path d="M29.0566 8.67817C29.25 9.12614 29.0859 9.63141 28.6875 9.95958L26.1504 12.0119C26.2149 12.4443 26.25 12.887 26.25 13.335C26.25 13.783 26.2149 14.2257 26.1504 14.6581L28.6875 16.7104C29.0859 17.0386 29.25 17.5439 29.0566 17.9918C28.7988 18.6117 28.4883 19.2107 28.1367 19.7785L27.8613 20.2004C27.4746 20.7734 27.041 21.3152 26.5664 21.8309C26.2149 22.2007 25.6465 22.3309 25.1309 22.1851L21.8672 21.2579C21.082 21.7944 20.1621 22.2424 19.2891 22.5862L18.5567 25.5605C18.4395 26.0293 18.0293 26.3627 17.4902 26.4877C16.6817 26.6075 15.8496 26.67 14.9473 26.67C14.1504 26.67 13.3184 26.6075 12.5098 26.4877C11.9707 26.3627 11.5606 26.0293 11.4434 25.5605L10.7109 22.5862C9.78517 22.2424 8.91798 21.7944 8.13282 21.2579L4.87149 22.1851C4.35353 22.3309 3.78224 22.2007 3.43536 21.8309C2.96017 21.3152 2.52657 20.7734 2.13985 20.2004L1.86563 19.7785C1.50997 19.2107 1.2006 18.6117 0.941025 17.9918C0.751181 17.5439 0.911142 17.0386 1.3131 16.7104L3.84786 14.6581C3.78341 14.2257 3.75001 13.783 3.75001 13.335C3.75001 12.887 3.78341 12.4443 3.84786 12.0119L1.3131 9.95958C0.911142 9.63141 0.751181 9.13135 0.941025 8.67817C1.2006 8.0583 1.51056 7.45927 1.86563 6.89149L2.13927 6.46956C2.52657 5.89657 2.96017 5.35484 3.43536 4.84175C3.78224 4.46931 4.35353 4.34013 4.87149 4.48702L8.13282 5.41213C8.91798 4.87353 9.78517 4.42555 10.7109 4.08541L11.4434 1.11108C11.5606 0.638101 11.9707 0.262533 12.5098 0.182835C13.3184 0.0625599 14.1504 0 15 0C15.8496 0 16.6817 0.0625599 17.4902 0.182835C18.0293 0.262533 18.4395 0.638101 18.5567 1.11108L19.2891 4.08541C20.1621 4.42555 21.082 4.87353 21.8672 5.41213L25.1309 4.48702C25.6465 4.34013 26.2149 4.46931 26.5664 4.84175C27.041 5.35484 27.4746 5.89657 27.8613 6.46956L28.1367 6.89149C28.4883 7.45927 28.7988 8.0583 29.0566 8.67817L29.0566 8.67817L29.0566 8.67817ZM15 17.5022C17.5899 17.5022 19.6875 15.6374 19.6875 13.2881C19.6875 11.0326 17.5899 9.12093 15 9.12093C12.4102 9.12093 10.3125 11.0326 10.3125 13.2881C10.3125 15.6374 12.4102 17.5022 15 17.5022L15 17.5022Z" id="Forma" fill="#47E18A" fill-rule="evenodd" stroke="none" />
  </g>
</svg>