<?xml version="1.0" encoding="utf-8"?>
<svg width="30px" height="26.666626px" viewBox="0 0 30 26.666626" version="1.1" xmlns:xlink="http://www.w3.org/1999/xlink" xmlns="http://www.w3.org/2000/svg">
  <defs>
    <path d="M30 0L30 0L30 26.6667L0 26.6667L0 0L30 0Z" id="path_1" />
    <clipPath id="clip_1">
      <use xlink:href="#path_1" />
    </clipPath>
  </defs>
  <g id="house-chimney-medical" clip-path="url(#clip_1)">
    <path d="M30 0L30 0L30 26.6667L0 26.6667L0 0L30 0Z" id="house-chimney-medical" fill="none" stroke="none" />
    <path d="M26.6562 14.9792L26.6927 23.3177C26.6979 25.1667 25.2031 26.6667 23.3594 26.6667L6.67188 26.6667C4.83073 26.6667 3.33802 25.1719 3.33802 23.3333L3.33802 14.9792L1.66927 14.9792C0.730208 14.9792 0 14.2448 0 13.3073C0 12.8385 0.156458 12.4219 0.521354 12.0573L13.875 0.4175C14.2396 0.0521875 14.6562 0 15.0208 0C15.3854 0 15.8021 0.104375 16.1198 0.365312L21.6667 5.24479L21.6667 3.33333C21.6667 2.41302 22.4115 1.66667 23.3333 1.66667L25 1.66667C25.9219 1.66667 26.6667 2.41302 26.6667 3.33333L26.6667 9.63542L29.4167 12.0573C29.8333 12.4219 30.0469 12.8385 29.9896 13.3073C29.9896 14.2448 29.2083 14.9792 28.3229 14.9792L26.6562 14.9792L26.6562 14.9792ZM20.8333 12.9167C20.8333 12.4583 20.4583 12.0833 20 12.0833L17.0833 12.0833L17.0833 9.16668C17.0833 8.70835 16.7083 8.33335 16.25 8.33335L13.75 8.33335C13.2917 8.33335 12.9167 8.70835 12.9167 9.16668L12.9167 12.0833L10 12.0833C9.54167 12.0833 9.16667 12.4583 9.16667 12.9167L9.16667 15.4167C9.16667 15.875 9.54167 16.25 10 16.25L12.9167 16.25L12.9167 19.1667C12.9167 19.625 13.2917 20 13.75 20L16.25 20C16.7083 20 17.0833 19.625 17.0833 19.1667L17.0833 16.25L20 16.25C20.4583 16.25 20.8333 15.875 20.8333 15.4167L20.8333 12.9167L20.8333 12.9167Z" id="Forma" fill="#47E18A" fill-rule="evenodd" stroke="none" />
  </g>
</svg>