<?xml version="1.0" encoding="utf-8"?>
<svg width="435px" height="96px" viewBox="0 0 435 96" version="1.1" xmlns:xlink="http://www.w3.org/1999/xlink" xmlns="http://www.w3.org/2000/svg">
  <defs>
    <path d="M71 0L71 0L71 71L0 71L0 0L71 0Z" id="path_1" />
    <clipPath id="clip_1">
      <use xlink:href="#path_1" />
    </clipPath>
  </defs>
  <g id="icon">
    <g id="Digi" transform="translate(79 0)">
      <g id="Digi" fill="#EDFEF4">
        <path d="M21.44 22.08Q28.544 22.08 33.888 24.928Q39.232 27.776 42.112 32.896Q44.992 38.016 44.992 44.608Q44.992 51.136 42.08 56.256Q39.168 61.376 33.824 64.288Q28.48 67.2 21.44 67.2L3.584 67.2L3.584 22.08L21.44 22.08ZM20.48 56.128Q25.984 56.128 29.12 53.12Q32.256 50.112 32.256 44.608Q32.256 39.04 29.12 36Q25.984 32.96 20.48 32.96L16.128 32.96L16.128 56.128L20.48 56.128ZM56.96 27.968Q53.632 27.968 51.616 26.144Q49.6 24.32 49.6 21.568Q49.6 18.752 51.616 16.896Q53.632 15.04 56.96 15.04Q60.224 15.04 62.24 16.896Q64.256 18.752 64.256 21.568Q64.256 24.32 62.24 26.144Q60.224 27.968 56.96 27.968ZM63.168 31.296L63.168 67.2L50.624 67.2L50.624 31.296L63.168 31.296ZM83.584 30.848Q87.232 30.848 89.952 32.32Q92.672 33.792 94.144 36.288L94.144 31.296L106.688 31.296L106.688 66.816Q106.688 71.872 104.768 75.936Q102.848 80 98.784 82.432Q94.72 84.864 88.512 84.864Q80.192 84.864 75.2 80.96Q70.208 77.056 69.504 70.336L81.856 70.336Q82.24 72.064 83.776 73.024Q85.312 73.984 87.744 73.984Q94.144 73.984 94.144 66.816L94.144 62.208Q92.672 64.704 89.952 66.176Q87.232 67.648 83.584 67.648Q79.296 67.648 75.808 65.408Q72.32 63.168 70.304 58.976Q68.288 54.784 68.288 49.216Q68.288 43.648 70.304 39.488Q72.32 35.328 75.808 33.088Q79.296 30.848 83.584 30.848ZM94.144 49.216Q94.144 45.76 92.256 43.776Q90.368 41.792 87.616 41.792Q84.8 41.792 82.944 43.744Q81.088 45.696 81.088 49.216Q81.088 52.672 82.944 54.688Q84.8 56.704 87.616 56.704Q90.368 56.704 92.256 54.72Q94.144 52.736 94.144 49.216ZM120.192 27.968Q116.864 27.968 114.848 26.144Q112.832 24.32 112.832 21.568Q112.832 18.752 114.848 16.896Q116.864 15.04 120.192 15.04Q123.456 15.04 125.472 16.896Q127.488 18.752 127.488 21.568Q127.488 24.32 125.472 26.144Q123.456 27.968 120.192 27.968ZM126.4 31.296L126.4 67.2L113.856 67.2L113.856 31.296L126.4 31.296Z" />
      </g>
    </g>
    <g id="Farma" transform="translate(215 0)">
      <g id="Farma" fill="#4AF192">
        <path d="M34.176 22.08L34.176 32.064L16.128 32.064L16.128 40L29.44 40L29.44 49.536L16.128 49.536L16.128 67.2L3.584 67.2L3.584 22.08L34.176 22.08ZM37.44 49.216Q37.44 43.648 39.456 39.488Q41.472 35.328 44.96 33.088Q48.448 30.848 52.736 30.848Q56.448 30.848 59.136 32.32Q61.824 33.792 63.296 36.288L63.296 31.296L75.84 31.296L75.84 67.2L63.296 67.2L63.296 62.208Q61.824 64.704 59.104 66.176Q56.384 67.648 52.736 67.648Q48.448 67.648 44.96 65.408Q41.472 63.168 39.456 58.976Q37.44 54.784 37.44 49.216ZM63.296 49.216Q63.296 45.76 61.408 43.776Q59.52 41.792 56.768 41.792Q53.952 41.792 52.096 43.744Q50.24 45.696 50.24 49.216Q50.24 52.672 52.096 54.688Q53.952 56.704 56.768 56.704Q59.52 56.704 61.408 54.72Q63.296 52.736 63.296 49.216ZM95.552 37.632Q97.664 34.56 100.672 32.768Q103.68 30.976 107.136 30.976L107.136 44.352L103.616 44.352Q99.52 44.352 97.536 45.952Q95.552 47.552 95.552 51.52L95.552 67.2L83.008 67.2L83.008 31.296L95.552 31.296L95.552 37.632ZM158.528 30.976Q165.312 30.976 169.184 35.072Q173.056 39.168 173.056 46.272L173.056 67.2L160.512 67.2L160.512 47.936Q160.512 45.056 158.912 43.456Q157.312 41.856 154.56 41.856Q151.808 41.856 150.208 43.456Q148.608 45.056 148.608 47.936L148.608 67.2L136.064 67.2L136.064 47.936Q136.064 45.056 134.496 43.456Q132.928 41.856 130.176 41.856Q127.36 41.856 125.76 43.456Q124.16 45.056 124.16 47.936L124.16 67.2L111.616 67.2L111.616 31.296L124.16 31.296L124.16 36.032Q125.824 33.728 128.48 32.352Q131.136 30.976 134.592 30.976Q138.56 30.976 141.664 32.704Q144.768 34.432 146.56 37.568Q148.48 34.624 151.616 32.8Q154.752 30.976 158.528 30.976ZM177.856 49.216Q177.856 43.648 179.872 39.488Q181.888 35.328 185.376 33.088Q188.864 30.848 193.152 30.848Q196.864 30.848 199.552 32.32Q202.24 33.792 203.712 36.288L203.712 31.296L216.256 31.296L216.256 67.2L203.712 67.2L203.712 62.208Q202.24 64.704 199.52 66.176Q196.8 67.648 193.152 67.648Q188.864 67.648 185.376 65.408Q181.888 63.168 179.872 58.976Q177.856 54.784 177.856 49.216ZM203.712 49.216Q203.712 45.76 201.824 43.776Q199.936 41.792 197.184 41.792Q194.368 41.792 192.512 43.744Q190.656 45.696 190.656 49.216Q190.656 52.672 192.512 54.688Q194.368 56.704 197.184 56.704Q199.936 56.704 201.824 54.72Q203.712 52.736 203.712 49.216Z" />
      </g>
    </g>
    <g id="icon-img" transform="translate(0 13)">
      <path d="M15.2143 11.1571L57.8143 11.1571L57.8143 53.7571L15.2143 53.7571L15.2143 11.1571Z" id="Retângulo" fill="#FFFFFF" fill-rule="evenodd" stroke="none" />
      <g id="shield-virus" clip-path="url(#clip_1)">
        <path d="M71 0L71 0L71 71L0 71L0 0L71 0Z" id="shield-virus" fill="none" stroke="none" />
        <path d="M39.9375 35.3752C38.7122 35.3752 37.7188 36.3684 37.7188 37.5939C37.7188 38.8193 38.7122 39.6879 39.9375 39.6879C41.1628 39.6879 42.1563 38.6946 42.1563 37.5939C42.1563 36.4984 41.1578 35.3752 39.9375 35.3752L39.9375 35.3752ZM31.0625 26.5002C29.8372 26.5002 28.8438 27.4934 28.8438 28.7189C28.8438 29.9442 29.8372 30.9377 30.9377 30.9377C32.0382 30.9377 33.1564 29.9442 33.1564 28.7189C33.2813 27.6234 32.2828 26.5002 31.0625 26.5002L31.0625 26.5002ZM64.6904 11.6041L38.0654 0.508926C37.3859 0.227561 36.235 0 35.5139 0C34.765 0 33.6279 0.227561 32.9484 0.509203L6.32344 11.6043C3.83982 12.6288 2.21875 15.0598 2.21875 17.6252C2.21875 53.4164 28.4555 71 35.4861 71C42.6998 71 68.7813 53.2223 68.7813 17.75C68.7813 15.0598 67.1588 12.6288 64.6904 11.6041L64.6904 11.6041ZM53.25 35.3752L51.5693 35.3752C48.8943 35.3752 47.1235 37.5634 47.1235 39.8446C47.1235 40.9348 47.5281 42.0467 48.432 42.9508L49.6212 44.1401C50.0546 44.5734 50.2713 45.141 50.2713 45.7085C50.2713 46.8909 49.3193 47.8024 48.0526 47.8024C47.4849 47.8024 46.9171 47.5858 46.4842 47.1523L45.2949 45.9631C44.3909 45.0591 43.28 44.6546 42.1887 44.6546C39.9075 44.6546 37.7193 46.4254 37.7193 49.1004L37.7193 50.7811C37.7193 52.0075 36.727 52.9998 35.5006 52.9998C34.2741 52.9998 33.2818 52.0075 33.2818 50.7811L33.2818 49.1004C33.2818 46.4254 31.0936 44.6546 28.8124 44.6546C27.7222 44.6546 26.6117 45.0591 25.7075 45.9631L24.5183 47.1523C24.0849 47.5857 23.5172 47.8024 22.9499 47.8024C21.6826 47.8024 20.7312 46.7661 20.7312 45.7085C20.7312 45.1407 20.9478 44.5732 21.3813 44.1401L22.5705 42.9508C23.4745 42.0468 23.879 40.9359 23.879 39.8446C23.879 37.5634 22.1082 35.3752 19.4332 35.3752L17.75 35.3752C16.5236 35.3752 15.5313 34.3829 15.5313 33.1564C15.5313 31.93 16.5236 30.9377 17.75 30.9377L19.4307 30.9377C22.1057 30.9377 23.8765 28.7495 23.8765 26.4683C23.8765 25.3781 23.4719 24.2662 22.568 23.3621L21.3832 22.2984C20.9395 21.8686 20.7314 21.3 20.7314 20.7314C20.7314 19.549 21.6834 18.6375 22.9502 18.6375C23.5179 18.6375 24.0856 18.8541 24.5186 19.2876L25.7098 20.3432C26.6111 21.2584 27.7205 21.6605 28.816 21.6605C31.0972 21.6605 33.2854 19.8897 33.2854 17.2133L33.2854 15.4064C33.2854 14.18 34.2777 13.1877 35.5042 13.1877C36.7306 13.1877 37.7229 14.18 37.7229 15.4064L37.7229 17.0871C37.7229 19.7621 39.9112 21.5344 42.1923 21.5344C43.2825 21.5344 44.3944 21.1298 45.2986 20.2258L46.4878 19.0365C46.9212 18.6031 47.4889 18.3864 48.0562 18.3864C49.3235 18.3864 50.2749 19.4227 50.2749 20.4803C50.2749 21.048 50.0583 21.6156 49.6248 22.0487L48.4356 23.2381C47.5316 24.1421 47.1271 25.253 47.1271 26.3443C47.1271 28.6255 48.8979 30.8137 51.5729 30.8137L53.2536 30.8137C54.48 30.8137 55.4724 31.8061 55.4724 33.0325C55.4724 34.2589 54.4703 35.3752 53.25 35.3752L53.25 35.3752Z" id="Forma" fill="#4AF192" fill-rule="evenodd" stroke="none" />
      </g>
    </g>
  </g>
</svg>