<?xml version="1.0" encoding="utf-8"?>
<svg width="30px" height="26.670044px" viewBox="0 0 30 26.670044" version="1.1" xmlns:xlink="http://www.w3.org/1999/xlink" xmlns="http://www.w3.org/2000/svg">
  <defs>
    <path d="M30 0L30 0L30 26.67L0 26.67L0 0L30 0Z" id="path_1" />
    <clipPath id="clip_1">
      <use xlink:href="#path_1" />
    </clipPath>
  </defs>
  <g id="money-check-dollar" clip-path="url(#clip_1)">
    <path d="M30 0L30 0L30 26.67L0 26.67L0 0L30 0Z" id="money-check-dollar" fill="none" stroke="none" />
    <path d="M26.6667 3.33375C28.5052 3.33375 30 4.82612 30 6.6675L30 20.0025C30 21.8413 28.5052 23.3363 26.6667 23.3363L3.33333 23.3363C1.49219 23.3363 0 21.8413 0 20.0025L0 6.6675C0 4.82612 1.49219 3.33375 3.33333 3.33375L26.6667 3.33375L26.6667 3.33375ZM14.1667 10.0013C13.7083 10.0013 13.3333 10.3763 13.3333 10.8347C13.3333 11.2931 13.7083 11.6681 14.1667 11.6681L25.8333 11.6681C26.2917 11.6681 26.6667 11.2931 26.6667 10.8347C26.6667 10.3763 26.2917 10.0013 25.8333 10.0013L14.1667 10.0013L14.1667 10.0013ZM14.1667 16.6688L25.8333 16.6688C26.2917 16.6688 26.6667 16.2937 26.6667 15.8353C26.6667 15.3769 26.2917 15.0019 25.8333 15.0019L14.1667 15.0019C13.7083 15.0019 13.3333 15.3769 13.3333 15.8353C13.3333 16.2937 13.7083 16.6688 14.1667 16.6688L14.1667 16.6688ZM8.54688 8.33438C8.54688 7.75618 8.07813 7.28737 7.45313 7.28737C6.92187 7.28737 6.45313 7.75618 6.45313 8.33438L6.45313 8.64691C6.16146 8.70942 5.83854 8.79797 5.625 8.91257C4.84687 9.26678 4.17031 9.92311 4.00573 10.8764C3.91354 11.4077 3.9625 11.9234 4.18333 12.387C4.39948 12.8454 4.73958 13.1683 5.0849 13.4027C5.6875 13.8142 6.48438 14.0538 7.09375 14.2362L7.20833 14.2674C7.9375 14.4914 8.42708 14.6529 8.73438 14.8769C8.86458 14.9706 8.91146 15.0435 8.92708 15.0904C8.94792 15.1321 8.97917 15.2259 8.94271 15.4342C8.91146 15.6165 8.8125 15.7728 8.52604 15.8926C8.20833 16.028 7.69271 16.0958 7.02604 15.9916C6.71354 15.9395 6.15625 15.752 5.66146 15.5853C5.54688 15.5436 5.43229 15.5071 5.32813 15.4707C4.78333 15.2884 4.19323 15.5853 4.01146 16.1322C3.82969 16.6792 4.125 17.2678 4.67083 17.4032C4.73385 17.4709 4.81198 17.497 4.90156 17.5282C5.26563 17.6689 5.95833 17.8877 6.45313 18.0023L6.45313 18.3356C6.45313 18.9138 6.92187 19.3826 7.45313 19.3826C8.07813 19.3826 8.54688 18.9138 8.54688 18.3356L8.54688 18.0491C8.82292 17.997 9.09375 17.872 9.34375 17.8095C10.1667 17.4605 10.8229 16.7833 10.9948 15.7936C11.0885 15.2519 11.0469 14.731 10.8385 14.257C10.6354 13.7882 10.3073 13.4444 9.95833 13.1944C9.32813 12.7308 8.48437 12.4807 7.85417 12.288L7.76563 12.2776C7.07292 12.0536 6.57292 11.8973 6.25521 11.6785C6.11979 11.5848 6.07813 11.5223 6.06771 11.4962C6.05729 11.4754 6.02604 11.4129 6.05729 11.2358C6.07813 11.1316 6.15625 10.9597 6.48438 10.8139C6.77604 10.6628 7.33854 10.5794 7.97396 10.6315C8.20313 10.7149 8.90625 10.8503 9.10937 10.9024C9.66146 11.0535 10.2344 10.7201 10.3802 10.1627C10.5313 9.61058 10.1979 9.03759 9.64063 8.89174C9.41146 8.82923 8.89063 8.72505 8.54688 8.66254L8.54688 8.33438L8.54688 8.33438Z" id="Forma" fill="#47E18A" fill-rule="evenodd" stroke="none" />
  </g>
</svg>