<?xml version="1.0" encoding="utf-8"?>
<svg width="82px" height="82px" viewBox="0 0 82 82" version="1.1" xmlns:xlink="http://www.w3.org/1999/xlink" xmlns="http://www.w3.org/2000/svg">
  <defs>
    <path d="M82 0L82 0L82 82L0 82L0 0L82 0Z" id="path_1" />
    <clipPath id="clip_1">
      <use xlink:href="#path_1" />
    </clipPath>
  </defs>
  <g id="spinner" clip-path="url(#clip_1)">
    <path d="M82 0L82 0L82 82L0 82L0 0L82 0Z" id="spinner" fill="none" stroke="none" />
    <path d="M48.6875 7.6875C48.6875 11.9332 45.2441 15.375 41 15.375C36.7559 15.375 33.3125 11.9332 33.3125 7.6875C33.3125 3.44176 36.7559 0 41 0C45.2441 0 48.6875 3.44176 48.6875 7.6875L48.6875 7.6875ZM48.6875 74.3125C48.6875 78.5566 45.2441 82 41 82C36.7559 82 33.3125 78.5566 33.3125 74.3125C33.3125 70.0684 36.7559 66.625 41 66.625C45.2441 66.625 48.6875 70.0684 48.6875 74.3125L48.6875 74.3125ZM0 41C0 36.7559 3.44176 33.3125 7.6875 33.3125C11.9332 33.3125 15.375 36.7559 15.375 41C15.375 45.2441 11.9332 48.6875 7.6875 48.6875C3.44176 48.6875 0 45.2441 0 41L0 41ZM82 41C82 45.2441 78.5566 48.6875 74.3125 48.6875C70.0684 48.6875 66.625 45.2441 66.625 41C66.625 36.7559 70.0684 33.3125 74.3125 33.3125C78.5566 33.3125 82 36.7559 82 41L82 41ZM12.0085 69.9883C9.00554 66.9934 9.00554 62.1246 12.0085 59.1137C15.0114 56.1188 19.8754 56.1188 22.8863 59.1137C25.8812 62.1246 25.8812 66.9934 22.8863 69.9883C19.8754 72.9992 15.0114 72.9992 12.0085 69.9883L12.0085 69.9883L12.0085 69.9883ZM22.8863 22.8863C19.8754 25.8812 15.0114 25.8812 12.0085 22.8863C9.00716 19.8754 9.00716 15.0114 12.0085 12.0085C15.0114 9.00554 19.8754 9.00554 22.8863 12.0085C25.8812 15.0114 25.8812 19.8754 22.8863 22.8863L22.8863 22.8863ZM59.1137 59.1137C62.1246 56.1188 66.9934 56.1188 69.9883 59.1137C72.9992 62.1246 72.9992 66.9934 69.9883 69.9883C66.9934 72.9992 62.1246 72.9992 59.1137 69.9883C56.1188 66.9934 56.1188 62.1246 59.1137 59.1137L59.1137 59.1137L59.1137 59.1137Z" id="Forma" fill="#4AF192" fill-rule="evenodd" stroke="none" />
  </g>
</svg>