<?xml version="1.0" encoding="utf-8"?>
<svg width="30px" height="26.670044px" viewBox="0 0 30 26.670044" version="1.1" xmlns:xlink="http://www.w3.org/1999/xlink" xmlns="http://www.w3.org/2000/svg">
  <defs>
    <path d="M30 0L30 0L30 26.67L0 26.67L0 0L30 0Z" id="path_1" />
    <clipPath id="clip_1">
      <use xlink:href="#path_1" />
    </clipPath>
  </defs>
  <g id="suitcase-medical" clip-path="url(#clip_1)">
    <path d="M30 0L30 0L30 26.67L0 26.67L0 0L30 0Z" id="suitcase-medical" fill="none" stroke="none" />
    <path d="M0 7.50094L0 22.5028C0 23.8363 1.31309 25.0031 2.8125 25.0031L3.75 25.0031L3.75 5.00063L2.8125 5.00063C1.31309 5.00063 0 6.16744 0 7.50094L0 7.50094ZM27.1875 5.00063L26.25 5.00063L26.25 25.0031L27.1875 25.0031C28.6869 25.0031 30 23.8358 30 22.5028L30 7.50094C30 6.16744 28.6875 5.00063 27.1875 5.00063L27.1875 5.00063ZM22.5 2.50031C22.5 1.16733 21.1875 0 19.6875 0L10.3125 0C8.8125 0 7.5 1.16733 7.5 2.50031L7.5 5.00063L5.625 5.00063L5.625 25.0031L24.375 25.0031L24.375 5.00063L22.5 5.00063L22.5 2.50031L22.5 2.50031ZM10.3125 2.50031L19.6875 2.50031L19.6875 5.00063L10.3125 5.00063L10.3125 2.50031L10.3125 2.50031ZM20.625 16.252C20.625 16.4812 20.4141 16.6688 20.1563 16.6688L16.875 16.6688L16.875 19.5858C16.875 19.8137 16.6626 20.0025 16.4063 20.0025L13.5938 20.0025C13.3359 20.0025 13.125 19.815 13.125 19.5858L13.125 16.6688L9.84375 16.6688C9.58594 16.6688 9.375 16.4812 9.375 16.252L9.375 13.7517C9.375 13.5225 9.58594 13.335 9.84375 13.335L13.125 13.335L13.125 10.418C13.125 10.1888 13.3359 10.0013 13.5938 10.0013L16.4063 10.0013C16.6641 10.0013 16.875 10.1888 16.875 10.418L16.875 13.335L20.1563 13.335C20.4141 13.335 20.625 13.5225 20.625 13.7517L20.625 16.252L20.625 16.252Z" id="Forma" fill="#47E18A" fill-rule="evenodd" stroke="none" />
  </g>
</svg>