<?xml version="1.0" encoding="utf-8"?>
<svg width="30px" height="26.670044px" viewBox="0 0 30 26.670044" version="1.1" xmlns:xlink="http://www.w3.org/1999/xlink" xmlns="http://www.w3.org/2000/svg">
  <defs>
    <path d="M30 0L30 0L30 26.67L0 26.67L0 0L30 0Z" id="path_1" />
    <clipPath id="clip_1">
      <use xlink:href="#path_1" />
    </clipPath>
  </defs>
  <g id="users-line" clip-path="url(#clip_1)">
    <path d="M30 0L30 0L30 26.67L0 26.67L0 0L30 0Z" id="users-line" fill="none" stroke="none" />
    <path d="M9.9 5.00063C9.9 6.8394 8.55469 8.33438 6.9 8.33438C5.24531 8.33438 3.9 6.8394 3.9 5.00063C3.9 3.15925 5.24531 1.66688 6.9 1.66688C8.55469 1.66688 9.9 3.15925 9.9 5.00063L9.9 5.00063ZM1.5 13.335C1.5 11.4962 2.84297 10.0013 4.5 10.0013L9 10.0013C9.57187 10.0013 10.1109 10.1784 10.5656 10.4909C8.82187 11.2775 7.49062 12.9495 7.0125 15.0019L3 15.0019C2.17172 15.0019 1.5 14.257 1.5 13.335L1.5 13.335L1.5 13.335ZM19.4953 10.4492C19.9359 10.1627 20.4516 10.0013 21 10.0013L25.5 10.0013C27.1547 10.0013 28.5 11.4962 28.5 13.335C28.5 14.257 27.8297 15.0019 27 15.0019L23.1375 15.0019C22.65 12.9131 21.2391 11.2202 19.4953 10.4492L19.4953 10.4492ZM18.3375 11.7931C19.8422 12.1786 21.0609 13.4027 21.5672 15.0019C21.7359 15.5228 21.825 16.0853 21.825 16.6688C21.825 17.5907 21.1547 18.3356 20.325 18.3356L9.825 18.3356C8.99531 18.3356 8.325 17.5907 8.325 16.6688C8.325 16.0853 8.41406 15.5228 8.58281 15.0019C9.075 13.4548 10.2328 12.2515 11.6766 11.8296C12.0047 11.7254 12.4266 11.6681 12.825 11.6681L17.325 11.6681C17.6719 11.6681 18.0141 11.7098 18.3375 11.7931L18.3375 11.7931ZM26.4 5.00063C26.4 6.8394 25.0547 8.33438 23.4 8.33438C21.7453 8.33438 20.4 6.8394 20.4 5.00063C20.4 3.15925 21.7453 1.66688 23.4 1.66688C25.0547 1.66688 26.4 3.15925 26.4 5.00063L26.4 5.00063ZM11.325 5.83406C11.325 3.53273 13.0031 1.66688 15.075 1.66688C17.1469 1.66688 18.825 3.53273 18.825 5.83406C18.825 8.13643 17.1469 10.0013 15.075 10.0013C13.0031 10.0013 11.325 8.13643 11.325 5.83406L11.325 5.83406ZM28.5 21.6694C29.3297 21.6694 30 22.4143 30 23.3363C30 24.2582 29.3297 25.0031 28.5 25.0031L1.5 25.0031C0.671719 25.0031 0 24.2582 0 23.3363C0 22.4143 0.671719 21.6694 1.5 21.6694L28.5 21.6694L28.5 21.6694Z" id="Forma" fill="#47E18A" fill-rule="evenodd" stroke="none" />
  </g>
</svg>